<svg width="1440" height="811" viewBox="0 0 1440 811" fill="none" xmlns="http://www.w3.org/2000/svg">
<g clip-path="url(#clip0_34_2)">
<path d="M1411.77 243.582C1290.15 334.387 1161.31 368.505 1020.16 306.024C879.002 243.543 725.54 84.4632 590.081 66.6695C454.622 48.8759 337.165 172.368 211.658 232.678C142.662 265.833 71.2327 279.893 -2 279.8L-1.99996 -221.939C26.4312 -224.152 54.8571 -226.279 83.2302 -227.542C162.161 -231.055 240.682 -227.879 319.019 -221.68C397.355 -215.481 475.507 -206.259 551.05 -154.358C626.593 -102.457 699.527 -7.87771 774.925 46.394C850.323 100.666 928.185 114.63 1007.41 106.304C1086.63 97.9789 1167.22 67.3643 1248.81 20.3922C1322.09 -21.8008 1396.19 -77.1917 1464 -108.575V200.967C1446.84 216.097 1429.38 230.433 1411.77 243.582Z" fill="url(#paint0_linear_34_2)" fill-opacity="0.2"/>
<path d="M750.356 411.703C877.748 455.367 987.79 627.08 1109.69 711.244C1219.38 786.974 1338.67 791.823 1464 752.142V811H-2L-1.99997 437.675C108.124 483.286 221.728 503.209 341.238 479.547C478.222 452.425 622.964 368.039 750.356 411.703Z" fill="url(#paint1_linear_34_2)" fill-opacity="0.2"/>
<path d="M1020.29 305.73C1161.3 368.151 1290.02 334.082 1411.58 243.324C1429.15 230.21 1446.56 215.911 1463.68 200.822V-108.072C1429.93 -92.4072 1394.63 -70.8154 1358.63 -47.8742C1350.56 -42.7298 1342.45 -37.5175 1334.32 -32.2892C1306.03 -14.1011 1277.44 4.28065 1248.97 20.6705C1167.36 67.657 1086.73 98.2923 1007.44 106.624C928.152 114.956 850.208 100.979 774.737 46.6547C738.094 20.2791 702.038 -15.6064 666.005 -51.4688L662.815 -54.6434C625.71 -91.5643 588.611 -128.162 550.868 -154.093C475.401 -205.942 397.325 -215.161 318.993 -221.359C240.664 -227.558 162.157 -230.733 83.2447 -227.221C54.976 -225.963 26.6537 -223.846 -1.67862 -221.642L-1.67866 279.479C71.3989 279.531 142.672 265.472 211.519 232.389C242.877 217.321 273.736 198.303 304.512 178.524C311.774 173.857 319.032 169.147 326.29 164.437C349.787 149.188 373.291 133.935 396.976 120.108C458.975 83.9114 522.283 57.4396 590.123 66.3509C657.94 75.2592 730.23 119.525 803.164 169.324C816.873 178.684 830.605 188.24 844.335 197.795C903.682 239.094 962.998 280.372 1020.29 305.73ZM1109.51 711.508C1059.98 677.312 1012.41 628.67 964.86 580.055C953.865 568.813 942.872 557.572 931.856 546.512C873.178 487.601 813.868 433.811 750.252 412.007C686.652 390.207 618.698 400.365 549.479 419.39C523.04 426.657 496.428 435.213 469.809 443.773C461.583 446.418 453.357 449.063 445.135 451.67C410.31 462.713 375.565 473.078 341.301 479.862C221.874 503.508 108.349 483.654 -1.67868 438.156L-1.67871 810.679H1463.68V752.581C1338.44 792.14 1219.18 787.224 1109.51 711.508Z" stroke="url(#paint2_linear_34_2)" stroke-opacity="0.2" stroke-width="0.642458" stroke-linecap="round" stroke-linejoin="round"/>
</g>
<defs>
<linearGradient id="paint0_linear_34_2" x1="-109.387" y1="630.631" x2="995.2" y2="380.587" gradientUnits="userSpaceOnUse">
<stop stop-color="#FFCADA"/>
<stop offset="1" stop-color="white" stop-opacity="0"/>
</linearGradient>
<linearGradient id="paint1_linear_34_2" x1="-109.387" y1="630.631" x2="995.2" y2="380.587" gradientUnits="userSpaceOnUse">
<stop stop-color="#FFCADA"/>
<stop offset="1" stop-color="white" stop-opacity="0"/>
</linearGradient>
<linearGradient id="paint2_linear_34_2" x1="-9.01578" y1="154.928" x2="1159.31" y2="-86.2862" gradientUnits="userSpaceOnUse">
<stop stop-color="#FEE8DD"/>
<stop offset="1" stop-color="white" stop-opacity="0"/>
</linearGradient>
<clipPath id="clip0_34_2">
<rect width="1440" height="811" fill="white"/>
</clipPath>
</defs>
</svg>
